<?xml version="1.0" encoding="UTF-8"?>
<svg width="291px" height="30px" viewBox="0 0 291 30" version="1.1" xmlns="http://www.w3.org/2000/svg" xmlns:xlink="http://www.w3.org/1999/xlink">
    <!-- Generator: Sketch 54.1 (76490) - https://sketchapp.com -->
    <title>Group 6</title>
    <desc>Created with Sketch.</desc>
    <defs>
        <polygon id="path-1" points="0.0872698333 0.0243672962 11.8698606 0.0243672962 11.8698606 18.3727089 0.0872698333 18.3727089"></polygon>
        <polygon id="path-3" points="0.0642428588 0.0244622146 10.5897889 0.0244622146 10.5897889 13.6015886 0.0642428588 13.6015886"></polygon>
    </defs>
    <g id="Page-1" stroke="none" stroke-width="1" fill="none" fill-rule="evenodd">
        <g id="CKAN-Landing-page" transform="translate(-25.000000, -20.000000)">
            <g id="Group-6" transform="translate(25.000000, 19.000000)">
                <text id="Open-Data-Portal" font-family="Barlow-Regular, Barlow" font-size="24.708927" font-weight="normal" fill="#FFFFFF">
                    <tspan x="113" y="25">Open Data Portal</tspan>
                </text>
                <g id="Amplus-logo-white" transform="translate(0.000000, 1.000000)">
                    <polygon id="Fill-1" fill="#FFFFFF" fill-rule="nonzero" points="11 0 13.3316202 4.99764562 22.1972589 24 27 24 15.8027411 0"></polygon>
                    <polygon id="Fill-2" fill="#FFFFFF" fill-rule="nonzero" points="2.31654676 19 0 25 4.68345324 25 7 19"></polygon>
                    <polygon id="Fill-3" fill="#FFFFFF" fill-rule="nonzero" points="7 10 9.41719745 15.2419033 13.3236059 24 18 24 11.6763941 10"></polygon>
                    <g id="Group-16" transform="translate(31.000000, 6.000000)">
                        <path d="M15.7345191,18.4165642 L15.7345191,11.259955 C15.7345191,10.2111068 15.5682809,9.44535265 15.2370287,8.96316724 C14.9050419,8.48098182 14.3554032,8.23988911 13.5873778,8.23988911 C12.7843421,8.23988911 12.1864722,8.48098182 11.7937681,8.96316724 C11.401064,9.44535265 11.204712,10.2111068 11.204712,11.259955 L11.204712,18.4165642 L7.87945855,18.4165642 L7.87945855,11.259955 C7.87945855,10.2111068 7.71322035,9.44535265 7.38196811,8.96316724 C7.04998139,8.48098182 6.5003426,8.23988911 5.73231726,8.23988911 C4.94666432,8.23988911 4.35320132,8.48098182 3.95192828,8.96316724 C3.55016558,9.44535265 3.34965148,10.2111068 3.34965148,11.259955 L3.34965148,18.4165642 L0.024398011,18.4165642 L0.024398011,5.44857657 L3.34965148,5.44857657 L3.34965148,6.64098884 C3.71615894,6.16758337 4.16125619,5.79977461 4.68518804,5.53708797 C5.20863023,5.27511322 5.82828983,5.14388854 6.54392198,5.14388854 C7.38196811,5.14388854 8.08437956,5.30050389 8.65164596,5.61325998 C9.21891236,5.92672796 9.66866133,6.37901409 10.0001584,6.97106754 C10.4540694,6.31114744 11.0387186,5.841776 11.7545956,5.56271594 C12.4702278,5.28341858 13.2468221,5.14388854 14.0848682,5.14388854 C15.4987498,5.14388854 16.6812689,5.51620593 17.6326702,6.2603661 C18.5840718,7.00500086 19.0597725,8.33314643 19.0597725,10.2448028 L19.0597725,18.4165642 L15.7345191,18.4165642 Z" id="Fill-4" fill="#FFFFFF" fill-rule="nonzero"></path>
                        <g id="Group-8" transform="translate(22.769001, 5.119592)">
                            <g id="Fill-6-Clipped">
                                <mask id="mask-2" fill="white">
                                    <use xlink:href="#path-1"></use>
                                </mask>
                                <g id="path-1"></g>
                                <path d="M5.79518908,10.5052558 C7.61058847,10.5052558 8.5186554,9.27914755 8.5186554,6.82574448 C8.5186554,5.72611494 8.28655848,4.83340749 7.82456811,4.14809672 C7.36184325,3.46278595 6.6856284,3.12036786 5.79518908,3.12036786 C5.23649166,3.12036786 4.76519782,3.21789651 4.38130756,3.41224191 C3.99717249,3.6070619 3.6742444,3.87330798 3.41276813,4.21169204 L3.41276813,9.38877829 C3.60446842,9.67638101 3.90095509,9.93455903 4.30271779,10.1628378 C4.70399083,10.3911165 5.20148126,10.5052558 5.79518908,10.5052558 M6.3188761,13.6014937 C5.63825436,13.6014937 5.06217415,13.4828457 4.5908803,13.2462616 C4.11958647,13.0094403 3.7268824,12.7049895 3.41276813,12.3326721 L3.41276813,16.9006196 L0.0872698333,18.3728038 L0.0872698333,0.32881803 L3.41276813,0.32881803 L3.41276813,1.2677982 C3.7268824,0.912566124 4.12350371,0.616658046 4.60385619,0.379599368 C5.08396384,0.142777987 5.66420613,0.0243672962 6.34531753,0.0243672962 C8.00353735,0.0243672962 9.33882909,0.608115391 10.3514376,1.77537428 C11.3635564,2.94263318 11.8698606,4.6264854 11.8698606,6.82574448 C11.8698606,8.95737421 11.3461736,10.6196325 10.2987996,11.8125194 C9.25142551,13.0049316 7.92494758,13.6014937 6.3188761,13.6014937" id="Fill-6" fill="#FFFFFF" fill-rule="nonzero" mask="url(#mask-2)"></path>
                            </g>
                        </g>
                        <polygon id="Fill-9" fill="#FFFFFF" fill-rule="nonzero" points="38.0426804 18.4165642 38.0426804 1.6162466 41.3679339 0.0937556391 41.3679339 18.4165642"></polygon>
                        <path d="M53.5692784,18.4165642 L53.5692784,17.1982867 C53.1672709,17.6892521 52.6658632,18.0656035 52.0635865,18.3275782 C51.4613096,18.5897903 50.7674672,18.7212523 49.9820591,18.7212523 C49.2137889,18.7212523 48.4719602,18.5643996 47.756328,18.2516435 C47.040451,17.9386501 46.4513949,17.4059207 45.9891597,16.6527433 C45.5261901,15.9002777 45.2950724,14.8723116 45.2950724,13.5693194 L45.2950724,5.44857657 L48.6205707,5.44857657 L48.6205707,12.6303392 C48.6205707,13.6625767 48.8169227,14.4195508 49.2096268,14.901499 C49.6025757,15.3839217 50.199956,15.6247771 51.0032365,15.6247771 C51.8060274,15.6247771 52.434256,15.3967357 52.888167,14.9397036 C53.3420781,14.4829089 53.5692784,13.730206 53.5692784,12.6811205 L53.5692784,5.44857657 L56.8945319,5.44857657 L56.8945319,18.4165642 L53.5692784,18.4165642 Z" id="Fill-11" fill="#FFFFFF" fill-rule="nonzero"></path>
                        <g id="Group-15" transform="translate(59.841624, 5.119592)">
                            <g id="Fill-13-Clipped">
                                <mask id="mask-4" fill="white">
                                    <use xlink:href="#path-3"></use>
                                </mask>
                                <g id="path-3"></g>
                                <path d="M5.37921322,13.6015886 C4.29682878,13.6015886 3.27148924,13.3896833 2.30270498,12.9670592 C1.33416553,12.5441978 0.587685055,11.9860776 0.0642428588,11.2919869 L2.28948426,9.46480792 C2.56858815,9.73556263 2.98332672,10.0359793 3.53321034,10.3658207 C4.08333878,10.6956621 4.70716045,10.8608201 5.40540981,10.8608201 C6.01625559,10.8608201 6.51374602,10.7718341 6.89788111,10.5943368 C7.28177136,10.4166021 7.47396132,10.1081173 7.47396132,9.66793328 C7.47396132,9.27900518 7.25557477,8.96150316 6.81929133,8.71637642 C6.38300788,8.47101239 5.77191729,8.20452901 4.98650916,7.91692629 C3.50260684,7.44328353 2.37664302,6.89774008 1.60886252,6.28005866 C0.840347518,5.66261454 0.456702092,4.79529776 0.456702092,3.6788202 C0.456702092,2.494476 0.932158007,1.58942916 1.88380431,0.963205085 C2.83496097,0.337455603 3.97390068,0.0244622146 5.30062344,0.0244622146 C6.45278386,0.0244622146 7.43013711,0.231621599 8.23317285,0.645940369 C9.03620857,1.06073373 9.68206476,1.54695318 10.1707414,2.1053106 L7.91905857,3.85631759 C7.53492348,3.50108552 7.13781252,3.23056811 6.72748084,3.04429077 C6.317394,2.85848802 5.84169325,2.76499341 5.30062344,2.76499341 C4.77693642,2.76499341 4.35803577,2.84994537 4.04367666,3.01866281 C3.7298072,3.18809213 3.57262764,3.43369346 3.57262764,3.75475492 C3.57262764,4.10998699 3.83434873,4.41467502 4.35803577,4.66858171 C4.88172279,4.9222511 5.49256857,5.15076713 6.19081794,5.35365518 C6.97647088,5.60756188 7.70507892,5.90797858 8.37713169,6.25466799 C9.04918446,6.60135741 9.58584737,7.04557547 9.98761006,7.58684759 C10.3888831,8.1285943 10.5898869,8.82197313 10.5898869,9.66793328 C10.5898869,10.9369921 10.1139413,11.9099056 9.16302947,12.5864365 C8.21113832,13.2632046 6.9502743,13.6015886 5.37921322,13.6015886" id="Fill-13" fill="#FFFFFF" fill-rule="nonzero" mask="url(#mask-4)"></path>
                            </g>
                        </g>
                    </g>
                </g>
            </g>
        </g>
    </g>
</svg>