<?xml version="1.0" encoding="UTF-8"?>
<svg width="22px" height="24px" viewBox="0 0 22 24" version="1.1" xmlns="http://www.w3.org/2000/svg" xmlns:xlink="http://www.w3.org/1999/xlink">
    <!-- Generator: Sketch 54.1 (76490) - https://sketchapp.com -->
    <title>password</title>
    <desc>Created with Sketch.</desc>
    <g id="Page-1" stroke="none" stroke-width="1" fill="none" fill-rule="evenodd">
        <g id="CKAN-Landing-page" transform="translate(-1807.000000, -23.000000)" fill="#FFFFFF" fill-rule="nonzero">
            <g id="password" transform="translate(1807.000000, 23.000000)">
                <ellipse id="Oval" cx="16.5" cy="15.8823529" rx="1.1" ry="1.05882353"></ellipse>
                <path d="M21.0178571,16.96875 C21.5602946,16.96875 22,16.5490312 22,16.03125 L22,12.5625 C22,10.49475 20.2376429,8.8125 18.0714286,8.8125 L16.8910402,8.8125 L16.8910402,5.50621875 C16.8910402,2.47007812 14.2475045,0 10.998183,0 C7.74886161,0 5.10532589,2.47007812 5.10532589,5.50621875 L5.10532589,8.8125 L3.92857143,8.8125 C1.76235714,8.8125 0,10.49475 0,12.5625 L0,20.25 C0,22.31775 1.76235714,24 3.92857143,24 L18.0714286,24 C20.2376429,24 22,22.31775 22,20.25 C22,19.7322187 21.5602946,19.3125 21.0178571,19.3125 C20.4754196,19.3125 20.0357143,19.7322187 20.0357143,20.25 C20.0357143,21.283875 19.1545357,22.125 18.0714286,22.125 L3.92857143,22.125 C2.84546429,22.125 1.96428571,21.283875 1.96428571,20.25 L1.96428571,12.5625 C1.96428571,11.528625 2.84546429,10.6875 3.92857143,10.6875 L18.0714286,10.6875 C19.1545357,10.6875 20.0357143,11.528625 20.0357143,12.5625 L20.0357143,16.03125 C20.0357143,16.5490312 20.4754196,16.96875 21.0178571,16.96875 Z M14.9267545,8.8125 L7.06961161,8.8125 L7.06961161,5.50621875 C7.06961161,3.50395313 8.83196875,1.875 10.998183,1.875 C13.1643973,1.875 14.9267545,3.50395313 14.9267545,5.50621875 L14.9267545,8.8125 Z" id="Shape"></path>
                <ellipse id="Oval" cx="9.16666667" cy="15.8823529" rx="1.1" ry="1.05882353"></ellipse>
                <ellipse id="Oval" cx="5.5" cy="15.8823529" rx="1.1" ry="1.05882353"></ellipse>
                <ellipse id="Oval" cx="12.8333333" cy="15.8823529" rx="1.1" ry="1.05882353"></ellipse>
            </g>
        </g>
    </g>
</svg>