<?xml version="1.0" encoding="UTF-8"?>
<svg width="22px" height="22px" viewBox="0 0 22 22" version="1.1" xmlns="http://www.w3.org/2000/svg" xmlns:xlink="http://www.w3.org/1999/xlink">
    <!-- Generator: Sketch 54.1 (76490) - https://sketchapp.com -->
    <title>login</title>
    <desc>Created with Sketch.</desc>
    <g id="Page-1" stroke="none" stroke-width="1" fill="none" fill-rule="evenodd">
        <g id="CKAN-Landing-page" transform="translate(-1869.000000, -24.000000)" fill="#FFFFFF" fill-rule="nonzero">
            <g id="login" transform="translate(1869.000000, 24.000000)">
                <path d="M5.64359997,20.28125 L2.60476211,20.28125 C2.23833509,20.28125 2.01726862,20.0765039 1.9181299,19.9544297 C1.74697612,19.743625 1.68066905,19.4693125 1.73633266,19.2016602 C2.62767989,14.9150547 6.40610979,11.7845664 10.7680419,11.6829883 C10.8407007,11.6856953 10.9135312,11.6875 10.9867908,11.6875 C11.0606942,11.6875 11.1341685,11.6856523 11.207471,11.6829023 C12.2740921,11.7072656 13.3159499,11.9080586 14.3076376,12.2808984 C14.7514014,12.447832 15.2462796,12.2228047 15.412927,11.7784648 C15.5795745,11.334168 15.354903,10.8386953 14.9110963,10.6718477 C14.7689974,10.6183945 14.6259115,10.5683789 14.4821389,10.5209414 C15.902741,9.45402734 16.8235294,7.75452734 16.8235294,5.84375 C16.8235294,2.62152344 14.2051942,0 10.9867908,0 C7.76838741,0 5.15005222,2.62152344 5.15005222,5.84375 C5.15005222,7.75624609 6.07242859,9.45707812 7.49517654,10.5238203 C6.1917384,10.9534219 4.96859832,11.6215 3.89815763,12.5030469 C1.93546844,14.1194023 0.570830378,16.3739297 0.0556952799,18.8513789 C-0.10575921,19.6276523 0.0876256734,20.4249805 0.586280568,21.038832 C1.08240335,21.6496758 1.81813283,22 2.60476211,22 L5.64359997,22 C6.11766332,22 6.50194388,21.6152578 6.50194388,21.140625 C6.50194388,20.6659922 6.11766332,20.28125 5.64359997,20.28125 Z M6.86674005,5.84375 C6.86674005,3.56919922 8.71496907,1.71875 10.9867908,1.71875 C13.2586126,1.71875 15.1068416,3.56919922 15.1068416,5.84375 C15.1068416,8.05092578 13.3663776,9.85866406 11.1873858,9.96380859 C11.1205637,9.96260547 11.0537416,9.96157422 10.9867908,9.96157422 C10.9196683,9.96157422 10.8525887,9.9625625 10.7855521,9.96376563 C8.60686066,9.85832031 6.86674005,8.05071094 6.86674005,5.84375 Z" id="Shape"></path>
                <path d="M21.3503789,14.9242754 C20.9871347,14.1147975 20.1689126,13.5903065 19.2638361,13.5882353 L16.6173856,13.5882353 C16.6154763,13.5882353 16.6136942,13.5882353 16.6117424,13.5882353 C15.6570651,13.5882353 14.8241621,14.1487406 14.4890067,15.0172703 C14.4444127,15.1328375 14.38989,15.2784167 14.3329912,15.4481323 L8.77693885,15.4481323 C8.54751927,15.4481323 8.32790105,15.5406622 8.16806685,15.704629 L6.7103382,17.2004935 C6.3892696,17.5299489 6.39088195,18.0544821 6.71394476,18.3819508 L8.1989984,19.8872838 C8.35853559,20.0490103 8.57662632,20.140103 8.8042214,20.140103 L11.5621782,20.140103 C12.0308611,20.140103 12.4107802,19.7616139 12.4107802,19.2946952 C12.4107802,18.8277766 12.0308611,18.4492875 11.5621782,18.4492875 L9.16004025,18.4492875 L8.50542861,17.785727 L9.13581267,17.1389478 L14.9695701,17.1389478 C15.3605211,17.1389478 15.7008529,16.8728557 15.7938173,16.494578 C15.8624692,16.2152976 15.9486023,15.9467961 16.0731771,15.6239771 C16.1553218,15.4111035 16.361617,15.2790508 16.6137791,15.2790508 C16.6143307,15.2790508 16.6148822,15.2790508 16.6154338,15.2790508 L19.2618419,15.2790508 C19.5018265,15.2796003 19.7083763,15.4081023 19.8009163,15.6143395 C20.0287236,16.1220914 20.300743,16.9081515 20.3027796,17.7695374 C20.3048162,18.6373062 20.0330939,19.4413735 19.8046926,19.9631169 C19.7126193,20.1735389 19.5043299,20.3092268 19.2717705,20.3092268 C19.2713038,20.3092268 19.270837,20.3092268 19.2703703,20.3092268 L16.59197,20.3092268 C16.3572042,20.3086773 16.137289,20.1581947 16.0447914,19.9347957 C15.9455474,19.6950803 15.8595415,19.4213796 15.781852,19.0979689 C15.6727642,18.6439004 15.2146888,18.3639013 14.7590744,18.4725362 C14.3032477,18.5812134 14.0221907,19.0374377 14.1312785,19.4915062 C14.2297588,19.9014866 14.3424956,20.257361 14.4758534,20.5794614 C14.8322239,21.4402555 15.6613081,21.9978442 16.5900182,22 L19.2684185,22 C19.270243,22 19.2719402,22 19.2737647,22 C20.1796899,21.9999577 20.9984212,21.466125 21.3604772,20.6388513 C21.6537541,19.9688234 22.0027417,18.9264356 21.9999838,17.7655217 C21.9972682,16.6077781 21.6452257,15.5814108 21.3503789,14.9242754 Z" id="Path"></path>
                <circle id="Oval" cx="18.4411765" cy="17.7941176" r="1"></circle>
            </g>
        </g>
    </g>
</svg>