<?xml version="1.0" encoding="UTF-8"?>
<svg width="21px" height="21px" viewBox="0 0 21 21" version="1.1" xmlns="http://www.w3.org/2000/svg" xmlns:xlink="http://www.w3.org/1999/xlink">
    <!-- Generator: Sketch 54.1 (76490) - https://sketchapp.com -->
    <title>search (4)</title>
    <desc>Created with Sketch.</desc>
    <g id="Page-1" stroke="none" stroke-width="1" fill="none" fill-rule="evenodd">
        <g id="CKAN-Landing-page" transform="translate(-1745.000000, -25.000000)" fill="#FFFFFF" fill-rule="nonzero">
            <g id="search-(4)" transform="translate(1745.000000, 25.000000)">
                <path d="M20.6807088,19.1276726 L15.5038495,13.9294667 C16.834911,12.4018186 17.5642074,10.4797247 17.5642074,8.47874171 C17.5642074,3.80363726 13.6244793,0 8.78210372,0 C3.93972809,0 0,3.80363726 0,8.47874171 C0,13.1538462 3.93972809,16.9574834 8.78210372,16.9574834 C10.5999992,16.9574834 12.3323646,16.428115 13.8134855,15.4231998 L19.0296733,20.6608503 C19.2476985,20.8794544 19.5409444,21 19.855191,21 C20.152637,21 20.4348099,20.8905136 20.6490168,20.6914475 C21.1041589,20.2686164 21.1186685,19.5674613 20.6807088,19.1276726 Z M8.78210372,2.21184566 C12.3613837,2.21184566 15.2732239,5.0231015 15.2732239,8.47874171 C15.2732239,11.9343819 12.3613837,14.7456377 8.78210372,14.7456377 C5.20282371,14.7456377 2.29098358,11.9343819 2.29098358,8.47874171 C2.29098358,5.0231015 5.20282371,2.21184566 8.78210372,2.21184566 Z" id="Shape"></path>
            </g>
        </g>
    </g>
</svg>